<svg width="100" height="100" viewBox="0 0 100 100" fill="none" xmlns="http://www.w3.org/2000/svg">
<path d="M88.209 22.7455H77.2538V11.7902C77.2538 10.8016 76.4522 10 75.4635 10C74.4749 10 73.6733 10.8016 73.6733 11.7902V23.7876L64.3747 33.0862L64.1609 32.8992C59.6185 29.0515 53.847 26.9406 47.9151 26.9406C34.0474 26.9406 22.7715 38.2165 22.7715 52.0842C22.7715 57.0007 24.1876 61.7569 26.8597 65.8184C27.1269 66.2192 27.5277 66.4864 28.0086 66.5933C28.4896 66.7001 28.9705 66.5933 29.3714 66.3261C29.7722 66.0589 30.0394 65.6581 30.1462 65.1771C30.2531 64.6961 30.1462 64.2152 29.879 63.8144C27.5811 60.314 26.3787 56.2526 26.3787 52.0308C26.3787 40.1403 36.0514 30.4944 47.9151 30.4944C52.885 30.4944 57.7214 32.2312 61.5691 35.3574L61.8363 35.5712L54.3279 43.0795C54.2745 43.133 54.221 43.1864 54.1409 43.2399C54.0874 43.2933 54.034 43.3467 53.9806 43.4002L53.9538 43.4269L46.6058 50.8017C45.9111 51.4964 45.9111 52.6454 46.6058 53.3401C47.3005 54.0348 48.4495 54.0348 49.1442 53.3401L55.2364 47.2479L55.4502 47.5952C56.2518 48.9313 56.6526 50.481 56.6526 52.0575C56.6526 56.9206 52.698 60.8752 47.8349 60.8752C42.9719 60.8752 39.0173 56.9206 39.0173 52.0575C39.0173 47.8892 41.9832 44.2552 46.0447 43.4269C47.0066 43.2399 47.6479 42.2779 47.4609 41.2893C47.2738 40.3274 46.3119 39.6861 45.3233 39.8731C39.5784 41.0488 35.4101 46.1791 35.4101 52.0308C35.4101 58.8711 40.9679 64.4557 47.8349 64.4557C54.6753 64.4557 60.2598 58.8979 60.2598 52.0308C60.2598 49.4389 59.4582 46.954 57.9886 44.8431L57.8283 44.6293L64.3213 38.1363L64.535 38.4035C67.6613 42.2245 69.3981 47.0608 69.3981 52.0308C69.3981 63.9212 59.7254 73.5672 47.8617 73.5672C43.6132 73.5672 39.4983 72.3381 35.9712 69.9867C35.6773 69.7997 35.3299 69.6928 34.9826 69.6928C34.849 69.6928 34.7421 69.6928 34.6085 69.7195C34.1275 69.8264 33.7267 70.0936 33.4595 70.4944C33.1923 70.8952 33.1122 71.3762 33.1923 71.8571C33.2992 72.3381 33.5664 72.7389 33.9672 73.0061C38.0821 75.7316 42.8917 77.1744 47.8349 77.1744C61.7027 77.1744 72.9786 65.8985 72.9786 52.0308C72.9786 46.0989 70.8677 40.3274 67.0467 35.8117L66.8597 35.5979L76.1583 26.2993H88.1823C89.171 26.2993 89.9725 25.4977 89.9725 24.509C89.9993 23.5471 89.1977 22.7455 88.209 22.7455Z" fill="#E58888"/>
<path d="M21.0888 78.8581C28.2498 86.0191 37.7622 89.9469 47.8624 89.9469C68.7575 89.9469 85.7515 72.9529 85.7515 52.0578C85.7515 45.0036 83.8009 38.1098 80.0868 32.1245C79.5524 31.2695 78.4569 31.029 77.6019 31.5367C77.2011 31.7772 76.9072 32.178 76.8003 32.6589C76.6934 33.1399 76.7735 33.6209 77.014 34.0217C80.354 39.4191 82.1443 45.6716 82.1443 52.0578C82.1443 70.9489 66.7802 86.3397 47.8624 86.3397C28.9446 86.3397 13.6072 70.9756 13.6072 52.0845C13.6072 33.1933 28.9713 17.8025 47.8891 17.8025C51.3093 17.8025 54.676 18.3102 57.9359 19.2989C58.8978 19.5928 59.8864 19.0584 60.1804 18.0965C60.4743 17.1345 59.9399 16.1459 58.978 15.852C55.3975 14.7564 51.6566 14.1953 47.8891 14.1953C26.994 14.1953 10 31.1893 10 52.0845C10 62.1847 13.9279 71.6971 21.0888 78.8581Z" fill="#E58888"/>
</svg>
