<svg width="100" height="100" viewBox="0 0 100 100" fill="none" xmlns="http://www.w3.org/2000/svg">
<path d="M52.1426 70.7566C52.4012 72.7187 51.8323 74.4742 50.6429 75.8683C49.195 77.5205 46.7645 78.6565 44.0238 78.9663V81.0833C44.0238 81.961 43.2998 82.6839 42.4207 82.6839C41.5416 82.6839 40.8176 81.961 40.8176 81.0833V78.9663C36.784 78.3983 33.6296 75.8683 32.6987 72.2023C32.4919 71.3762 33.009 70.4984 33.8364 70.2919C34.6638 70.0854 35.5429 70.6017 35.7498 71.4278C36.5772 74.6807 39.7833 75.8683 42.369 75.8683H42.4207C42.5241 75.8683 42.5758 75.8683 42.6792 75.8683C44.9546 75.8167 47.1265 74.9905 48.1607 73.8029C48.7813 73.0801 49.0399 72.2023 48.9364 71.118C48.6262 68.588 46.5577 67.1423 42.1621 66.4194C35.2326 65.2835 33.6296 61.7724 33.4744 59.0358C33.3193 55.3182 36.0083 52.117 40.1453 51.1876C40.3522 51.1359 40.6107 51.0843 40.8176 51.0327V48.8641C40.8176 47.9863 41.5416 47.2634 42.4207 47.2634C43.2998 47.2634 44.0238 47.9863 44.0238 48.8641V50.981C46.9714 51.3941 49.919 53.098 51.4186 56.6091C51.7806 57.4352 51.3669 58.3646 50.5912 58.6744C49.7638 59.0358 48.833 58.6228 48.5227 57.8483C47.3851 55.1633 44.9546 54.0274 42.5758 54.0274C42.5241 54.0274 42.4207 54.0274 42.369 54.0274C41.8518 54.0274 41.3347 54.079 40.8693 54.2339C38.7491 54.6986 36.5772 56.196 36.7323 58.9326C36.784 59.8103 36.8874 62.392 42.7309 63.3214C44.8512 63.6828 51.4186 64.7671 52.1426 70.7566ZM90.3581 80.6702L75.5166 98.0706C74.9995 98.6902 74.2755 99 73.4998 99C72.7242 99 72.0002 98.6902 71.4831 98.0706L65.5361 91.1001C59.4341 96.2118 51.5738 99 43.1446 99C42.9378 99 42.7309 99 42.5241 99C42.3172 99 42.1104 99 41.9035 99C29.6994 99 18.5812 93.0622 12.8412 83.3551C7.6182 74.5774 7.72162 64.0443 13.1514 54.5437C16.5644 48.6575 21.7357 41.8936 29.4408 33.529C27.2689 32.5479 25.7693 30.3277 25.7693 27.7977C25.7693 24.3899 28.51 21.6017 31.923 21.4984L26.9069 16.49C24.4247 14.0116 24.4247 9.93256 26.9069 7.40253C29.0271 5.28556 32.3885 4.92413 34.9224 6.52476C35.1809 6.67966 35.4395 6.7313 35.7498 6.5764C36.06 6.47313 36.2152 6.2666 36.2669 5.9568C36.8874 3.11697 39.5248 1 42.5241 1C45.5234 1 48.1607 3.11697 48.7813 6.06006C48.833 6.36986 49.0399 6.5764 49.2984 6.67966C49.6087 6.78293 49.8673 6.78293 50.1258 6.62803C52.6597 5.0274 56.021 5.38883 58.1412 7.5058C60.6234 9.98419 60.6234 14.0632 58.1412 16.5933L53.1251 21.6017C56.5382 21.705 59.2789 24.4415 59.2789 27.9009C59.2789 30.431 57.7793 32.6512 55.6073 33.6322C58.8135 37.1433 61.606 40.3962 64.0365 43.3909C64.1916 41.4805 65.7947 40.0348 67.7598 40.0348H79.2916C81.3601 40.0348 83.0149 41.687 83.0149 43.7524V76.4362H88.3413C89.3756 76.4362 90.3064 77.0042 90.7718 77.9852C91.1855 78.8114 91.0303 79.8957 90.3581 80.6702ZM29.0789 14.3214L36.3186 21.5501H48.6779L55.9176 14.3214C57.2104 13.0306 57.2104 11.0169 55.9176 9.72603C54.8316 8.64173 53.1251 8.48683 51.8323 9.31296C50.6947 10.0358 49.2984 10.1391 48.0573 9.62276C46.8162 9.10643 45.9371 8.07376 45.6268 6.7313C45.3166 5.23393 43.972 4.14963 42.4724 4.14963C40.9727 4.14963 39.6282 5.23393 39.3179 6.7313C39.0076 8.07376 38.1285 9.10643 36.8874 9.62276C35.6463 10.1391 34.2501 10.0358 33.1124 9.31296C31.8196 8.48683 30.1131 8.69336 29.0271 9.72603C27.8378 10.9652 27.8378 13.0306 29.0789 14.3214ZM28.872 27.7977C28.872 29.5016 30.2682 30.8957 31.9748 30.8957H52.97C54.6765 30.8957 56.0728 29.5016 56.0728 27.7977C56.0728 26.0938 54.6765 24.6997 52.97 24.6997H32.0265C30.2682 24.6997 28.872 26.0938 28.872 27.7977ZM63.4676 88.725L56.6416 80.6702C55.9693 79.8957 55.8142 78.7598 56.2796 77.8303C56.745 76.9009 57.6241 76.2813 58.7101 76.2813H64.0365V48.3994C60.882 44.1654 56.9001 39.4668 51.8323 34.0453H33.2159C24.8902 43.0295 19.4086 50.0516 15.8922 56.1444C10.9795 64.7671 10.8761 73.8546 15.5302 81.7545C20.8049 90.6354 31.0956 96.0569 42.4207 95.8504H42.4724C50.4361 96.0053 57.831 93.4752 63.4676 88.725ZM87.2036 79.4826H81.4118C80.5327 79.4826 79.8088 78.7597 79.8088 77.882V43.6491C79.8088 43.3393 79.5502 43.0811 79.2399 43.0811H67.708C67.3978 43.0811 67.1392 43.3393 67.1392 43.6491V77.882C67.1392 78.7597 66.4152 79.4826 65.5361 79.4826H59.796L73.4998 95.6438L87.2036 79.4826Z" fill="#589A8F"/>
</svg>
