<svg width="24" height="25" viewBox="0 0 24 25" fill="none" xmlns="http://www.w3.org/2000/svg">
<g id="Frame" clip-path="url(#clip0_615_6111)">
<path id="Vector" d="M24 9.60731C24 9.31618 23.8532 9.09784 23.633 8.87949C22.9725 8.37003 22.3119 7.78778 21.6514 7.27831L17.6881 3.93038C16.4404 2.91145 15.2661 1.89251 14.0183 0.873576C12.7706 -0.145359 11.2294 -0.145359 9.98165 0.873576C9.61468 1.1647 9.3211 1.45582 8.95413 1.74695L7.41284 3.05701C5.06422 5.0221 2.78899 6.98719 0.440367 8.87949C0.146789 9.02506 0 9.31618 0 9.75287C0 11.9363 0 14.1197 0 16.2304V21.3978C0 21.689 0 21.9801 0.0733945 22.2712C0.366972 23.6541 1.61468 24.5274 3.08257 24.5274C4.18349 24.5274 5.21101 24.5274 6.31193 24.5274C6.75229 24.5274 7.19266 24.5274 7.70642 24.5274H18.055C19.0092 24.5274 20.0367 24.5274 20.9908 24.5274C22.7523 24.5274 24.0734 23.2901 24.0734 21.5434C24.0734 19.2872 24.0734 16.9582 24.0734 14.702V13.5375C24 12.2274 24 10.9174 24 9.60731ZM16.5138 16.8126C16.2936 17.031 16.1468 17.3949 16.6605 17.9771L21.6514 22.999C21.4312 23.0718 21.211 23.1446 20.9174 23.1446C20.1835 23.1446 19.4495 23.1446 18.7156 23.1446H17.6147C12.844 23.1446 8 23.1446 3.22936 23.1446C3.00917 23.1446 2.7156 23.1446 2.42202 22.999L7.33945 18.0499L7.41284 17.9771C7.48624 17.9043 7.48624 17.9043 7.55963 17.8316C7.85321 17.5404 7.85321 17.1038 7.55963 16.8126C7.26605 16.5215 6.82569 16.5215 6.53211 16.8126C6.45871 16.8854 6.45871 16.8854 6.38532 16.9582L6.53211 17.1038L6.38532 17.031C4.77064 18.6322 3.22936 20.2333 1.61468 21.9073C1.61468 21.8345 1.61468 21.689 1.61468 21.6162C1.61468 20.5245 1.61468 19.5055 1.61468 18.4138V11.1357L6.82569 15.5026C7.9266 16.4487 9.02752 17.3221 10.1284 18.2683C11.156 19.1416 12.3303 19.2872 13.5046 18.7049C13.7982 18.5594 14.0183 18.4138 14.1651 18.2683C15.9266 16.8126 17.6881 15.2842 19.4495 13.8286L22.6789 11.1357V15.0659C22.6789 17.2493 22.6789 19.4328 22.6789 21.6162C22.6789 21.7617 22.6789 21.8345 22.6055 21.9801C21.578 20.8884 20.4771 19.8694 19.4495 18.7777L17.7615 17.1038C17.2477 16.5215 16.8073 16.5215 16.5138 16.8126ZM14.2385 16.1576L13.0642 17.1038C12.4037 17.686 11.5963 17.686 10.9358 17.1038C9.10092 15.5754 7.33945 14.047 5.50459 12.5185L1.83486 9.46174L3.00917 8.51559C5.65138 6.33216 8.22018 4.14872 10.8624 1.89251C11.6697 1.23748 12.3303 1.23748 13.1376 1.89251C15.1927 3.56648 17.1743 5.31322 19.2294 6.98719L22.1651 9.46174C19.5229 11.718 16.8807 13.9014 14.2385 16.1576Z" fill="#383838"/>
</g>
<defs>
<clipPath id="clip0_615_6111">
<rect width="24" height="24.6" fill="white"/>
</clipPath>
</defs>
</svg>
