<svg width="100" height="104" viewBox="0 0 100 104" fill="none" xmlns="http://www.w3.org/2000/svg">
<path d="M50.9837 0C53.7594 1.43746 56.3865 3.0732 58.7658 5.15504C65.0609 10.7562 68.6297 17.7948 70.1663 25.9735C71.4551 32.8634 71.009 39.7037 69.8194 46.544C69.6707 47.3371 69.8194 47.7832 70.4638 48.3285C80.8234 57.0524 83.0539 71.8731 75.6188 82.6789C75.0735 83.472 74.5779 84.5129 73.2891 84.2155C72.0004 83.9181 72.0499 82.8276 71.9012 81.8362C71.1081 76.4829 68.7785 71.9723 64.7635 68.3043C64.6148 68.2051 64.5156 68.106 64.3669 67.9573C64.3174 67.9077 64.2678 67.9077 64.1191 67.8581C63.5738 69.3452 62.979 70.8818 62.4338 72.3688C61.9381 73.7071 61.5911 73.955 60.2032 73.955C53.5116 73.955 46.82 73.955 40.1283 73.955C38.7404 73.955 38.3935 73.7071 37.8978 72.3688C37.4021 71.08 36.9064 69.7913 36.3612 68.3043C35.5185 69.1965 34.7255 69.94 34.0315 70.7331C31.1566 74.2028 29.4713 78.1682 28.9756 82.6293C28.8765 83.5215 28.5791 84.2155 27.6373 84.4137C26.7451 84.612 26.1998 84.1163 25.7041 83.4224C18.0707 72.8149 19.9047 57.4489 29.9174 48.9729C30.5618 48.4276 30.76 47.9319 30.6113 47.0893C29.62 41.5377 29.0747 35.887 29.62 30.2363C30.8096 17.6957 36.1629 7.68299 47.2661 1.14006C47.96 0.743515 48.654 0.396541 49.3479 0C49.8932 0 50.4384 0 50.9837 0ZM50.0914 70.6835C52.9664 70.6835 55.8909 70.6835 58.7658 70.6835C59.3606 70.6835 59.658 70.5348 59.8563 69.94C63.8217 59.3325 66.994 48.5268 67.5888 37.1262C67.9358 30.1867 66.9444 23.4455 63.8713 17.1504C63.5243 16.4565 63.1277 16.2086 62.3347 16.2086C54.5525 16.2582 46.7208 16.3078 38.9387 16.1591C37.2534 16.1591 36.4603 16.7043 35.8159 18.1913C32.4453 25.9239 32.0488 34.0034 33.0402 42.2317C33.3376 44.5118 33.9819 46.6928 34.4776 48.9729C36.0142 55.9619 38.0961 62.7527 40.1779 69.593C40.4257 70.4357 40.8223 70.7331 41.7145 70.7331C44.5894 70.6339 47.3652 70.6835 50.0914 70.6835ZM74.4292 78.0195C76.511 74.5002 77.5519 67.7094 75.8666 62.1083C74.6274 57.895 72.3969 54.3757 69.175 51.4512C67.9854 55.6645 66.8453 59.729 65.6557 63.7936C65.4574 64.3884 65.6061 64.7354 66.0522 65.1815C67.341 66.3711 68.6297 67.5607 69.7202 68.8991C71.9508 71.5262 73.4378 74.6489 74.4292 78.0195ZM26.4972 78.1682C26.5468 78.0195 26.6459 77.9204 26.6955 77.8213C28.1825 72.8645 30.9087 68.7008 34.8742 65.3798C35.0724 65.2311 35.122 64.7354 35.0724 64.438C34.6759 63.0997 34.2298 61.7613 33.8332 60.3734C33.0402 57.5976 32.2966 54.7723 31.5036 51.9965C24.2171 58.1429 22.1353 69.7913 26.4972 78.1682ZM61.2937 12.9372C58.4188 8.97175 54.9986 5.89855 50.7854 3.71758C50.488 3.56887 49.9427 3.66801 49.5958 3.86628C47.0678 5.20461 44.7877 6.93947 42.7554 8.97175C41.5658 10.1614 40.5249 11.4997 39.2361 12.9372C46.7704 12.9372 53.9577 12.9372 61.2937 12.9372Z" fill="#4B93C2"/>
<path d="M49.5458 103.299C48.951 102.704 48.7031 102.01 48.7031 101.168C48.7527 97.3509 48.7031 93.5837 48.7031 89.767C48.7031 88.4287 49.2979 87.6852 50.3884 87.7348C51.4293 87.7843 51.925 88.4287 51.9746 89.767C51.9746 93.5837 51.9746 97.3509 51.9746 101.168C51.9746 102.06 51.7763 102.754 51.1319 103.299C50.6363 103.299 50.091 103.299 49.5458 103.299Z" fill="#4B93C2"/>
<path d="M43.8 88.4286C43.8 90.3617 43.8 92.2453 43.8 94.1785C43.8 95.4177 43.2052 96.062 42.2139 96.1116C41.2225 96.1116 40.5781 95.4672 40.5781 94.228C40.5781 90.3122 40.5781 86.4459 40.5781 82.5301C40.5781 81.3404 41.2225 80.6465 42.2139 80.6465C43.2052 80.6465 43.8 81.3404 43.8 82.5796C43.8 84.5128 43.8 86.4459 43.8 88.4286Z" fill="#4B93C2"/>
<path d="M56.9375 88.3292C56.9375 86.3961 56.9375 84.5125 56.9375 82.5794C56.9375 81.2906 57.5819 80.5967 58.5732 80.5967C59.5646 80.6462 60.1594 81.3402 60.1594 82.5298C60.1594 86.3961 60.1594 90.2624 60.1594 94.1286C60.1594 95.3678 59.5646 96.0122 58.5732 96.0618C57.5819 96.0618 56.9871 95.3678 56.9375 94.1782C56.9375 92.2451 56.9375 90.3119 56.9375 88.3292Z" fill="#4B93C2"/>
<path d="M42.1099 36.8786C42.1594 32.368 45.877 28.7 50.3877 28.7495C54.9975 28.7495 58.6655 32.5167 58.6655 37.1265C58.6159 41.6867 54.8488 45.3547 50.3381 45.3051C45.6788 45.2556 42.0603 41.538 42.1099 36.8786ZM55.394 37.0273C55.394 34.2515 53.0643 31.9714 50.2885 31.9714C47.5128 32.021 45.2822 34.2515 45.2822 36.9778C45.2822 39.8031 47.5128 42.0832 50.3381 42.0832C53.1635 42.0832 55.394 39.8031 55.394 37.0273Z" fill="#4B93C2"/>
</svg>
