<svg width="79" height="80" viewBox="0 0 79 80" fill="none" xmlns="http://www.w3.org/2000/svg">
<path d="M43.2848 0C42.2632 0 41.3809 0.835885 41.3809 1.85752V35.7573C41.3809 36.7789 42.2167 37.6613 43.2384 37.6613H77.0917C78.1134 37.6613 78.9957 36.8254 78.9957 35.8037C78.9957 16.0211 63.021 0 43.2848 0ZM45.1423 33.8533V3.80792C61.3028 4.78312 74.2126 17.6929 75.1878 33.8533H45.1423Z" fill="#D9922A"/>
<path d="M69.6106 41.3768H37.6148V9.4274C37.6148 8.40576 36.7789 7.52344 35.7573 7.52344C16.0211 7.52344 0 23.5446 0 43.2807C0 63.0169 16.0211 79.038 35.7573 79.038C55.4935 79.038 71.5146 63.0169 71.5146 43.2807C71.5146 42.2127 70.6323 41.3768 69.6106 41.3768ZM35.7573 75.2766C18.1108 75.2766 3.76148 60.9736 3.76148 43.2807C3.76148 26.3308 16.9499 12.353 33.8533 11.3314V43.2807C33.8533 44.3024 34.6892 45.1847 35.7109 45.1847H67.6602C66.6386 62.0417 52.6608 75.2301 35.7573 75.2766Z" fill="#D9922A"/>
</svg>
