<svg xmlns="http://www.w3.org/2000/svg" xmlns:xlink="http://www.w3.org/1999/xlink" width="545" height="134" viewBox="0 0 184.274 56">
                                  <defs>
                                    <style>
                                      .a,
                                      .b {
                                        fill: none;
                                      }

                                      .a {
                                        clip-rule: evenodd;
                                      }

                                      .c {
                                        fill: #587abc;
                                      }

                                      .d {
                                        fill: #d1071c;
                                      }

                                      .d,
                                      .f {
                                        fill-rule: evenodd;
                                      }

                                      .e {
                                        clip-path: url(#a);
                                      }

                                      .f {
                                        fill: #fff;
                                      }
                                    </style>
                                    <clipPath id="a">
                                      <path class="a" d="M68.531,71.725a20,20,0,1,1-1.8,28.231,20.01,20.01,0,0,1,1.8-28.231Z" transform="translate(-61.746 -66.742)"></path>
                                    </clipPath>
                                  </defs>
                                  <rect class="b" width="184.274" height="56"></rect>
                                  <g transform="translate(169.444 14.298)">
                                    <path d="M3952.823,484.94V481.8h-1.2v-.42h2.884v.42h-1.2v3.136Z" transform="translate(-3951.623 -481.384)"></path>
                                    <path d="M4007.248,484.94v-3.556h.725l.86,2.517c.079.236.137.411.173.528.041-.131.107-.32.194-.571l.87-2.474h.647v3.556h-.464v-2.976l-1.056,2.976h-.433l-1.052-3.028v3.028Z" transform="translate(-4003.887 -481.384)"></path>
                                  </g>
                                  <g transform="translate(57.735 21.41)">
                                    <path class="c" d="M1289.661,658.852V643.583h4.716L1297.209,654l2.8-10.415h4.726v15.269h-2.927V646.833l-3.1,12.019h-3.034l-3.087-12.019v12.019Z" transform="translate(-1289.661 -643.583)"></path>
                                    <path class="c" d="M1698.428,743.126l2.98.49a4.791,4.791,0,0,1-1.815,2.443,5.417,5.417,0,0,1-3.1.838,5.106,5.106,0,0,1-4.365-1.885,6.236,6.236,0,0,1-1.119-3.812,6.025,6.025,0,0,1,1.47-4.307,4.89,4.89,0,0,1,3.715-1.557,5.075,5.075,0,0,1,3.982,1.631,7.1,7.1,0,0,1,1.394,4.994h-7.494a2.916,2.916,0,0,0,.724,2.026,2.286,2.286,0,0,0,1.724.724,1.856,1.856,0,0,0,1.181-.375,2.31,2.31,0,0,0,.725-1.208m.17-2.958a2.779,2.779,0,0,0-.671-1.933,2.08,2.08,0,0,0-1.553-.661,2.1,2.1,0,0,0-1.619.7,2.668,2.668,0,0,0-.628,1.9Z" transform="translate(-1673.698 -731.378)"></path>
                                    <path class="c" d="M1987.9,658.86h-2.778v-1.625a4.467,4.467,0,0,1-1.635,1.411,4.261,4.261,0,0,1-1.9.464,4.343,4.343,0,0,1-3.337-1.537,6.159,6.159,0,0,1-1.39-4.286,6.087,6.087,0,0,1,1.352-4.275,4.45,4.45,0,0,1,3.417-1.463,4.27,4.27,0,0,1,3.28,1.542v-5.5h2.99Zm-7.984-5.77a4.968,4.968,0,0,0,.5,2.562,2.269,2.269,0,0,0,2.023,1.146,2.218,2.218,0,0,0,1.756-.86,3.9,3.9,0,0,0,.724-2.567,4.268,4.268,0,0,0-.7-2.745,2.244,2.244,0,0,0-1.8-.838,2.27,2.27,0,0,0-1.784.828,3.679,3.679,0,0,0-.718,2.473" transform="translate(-1947.224 -643.591)"></path>
                                    <path class="c" d="M2301.2,643.584h2.992v2.708H2301.2Zm0,4.208h2.992v11.06H2301.2Z" transform="translate(-2257.573 -643.584)"></path>
                                    <path class="c" d="M2542.721,658.861h-3.427l-1.363-3.468h-6.239l-1.288,3.468h-3.343l6.079-15.268h3.333Zm-5.8-6.041-2.15-5.665-2.108,5.665Z" transform="translate(-2473.695 -643.593)"></path>
                                    <path class="c" d="M2903.989,743.491l3-.448a2.142,2.142,0,0,0,.777,1.3,2.67,2.67,0,0,0,1.64.443,3.01,3.01,0,0,0,1.746-.416.921.921,0,0,0,.394-.781.757.757,0,0,0-.213-.553,2.414,2.414,0,0,0-1-.385,16.428,16.428,0,0,1-4.588-1.427,2.836,2.836,0,0,1-1.342-2.49,3.044,3.044,0,0,1,1.161-2.416,5.5,5.5,0,0,1,3.6-.979,6.39,6.39,0,0,1,3.449.74,3.777,3.777,0,0,1,1.554,2.187l-2.822.511a1.7,1.7,0,0,0-.686-.989,2.554,2.554,0,0,0-1.443-.344,3.314,3.314,0,0,0-1.693.322.689.689,0,0,0-.341.594.642.642,0,0,0,.3.531,11.427,11.427,0,0,0,2.795.823,8.427,8.427,0,0,1,3.338,1.3,2.681,2.681,0,0,1,.937,2.177,3.314,3.314,0,0,1-1.3,2.614,5.834,5.834,0,0,1-3.843,1.093,6.407,6.407,0,0,1-3.656-.917,4.219,4.219,0,0,1-1.762-2.489" transform="translate(-2834.367 -731.378)"></path>
                                    <path class="c" d="M3185.138,743.491l3-.448a2.14,2.14,0,0,0,.777,1.3,2.67,2.67,0,0,0,1.64.443,3.01,3.01,0,0,0,1.746-.416.922.922,0,0,0,.394-.781.757.757,0,0,0-.213-.553,2.415,2.415,0,0,0-1-.385,16.419,16.419,0,0,1-4.588-1.427,2.835,2.835,0,0,1-1.341-2.49,3.044,3.044,0,0,1,1.16-2.416,5.5,5.5,0,0,1,3.6-.979,6.39,6.39,0,0,1,3.449.74,3.778,3.778,0,0,1,1.554,2.187l-2.822.511a1.7,1.7,0,0,0-.686-.989,2.555,2.555,0,0,0-1.444-.344,3.318,3.318,0,0,0-1.693.322.689.689,0,0,0-.341.594.643.643,0,0,0,.3.531,11.431,11.431,0,0,0,2.795.823,8.436,8.436,0,0,1,3.338,1.3,2.68,2.68,0,0,1,.936,2.177,3.313,3.313,0,0,1-1.3,2.614,5.833,5.833,0,0,1-3.843,1.093,6.409,6.409,0,0,1-3.657-.917,4.22,4.22,0,0,1-1.761-2.489" transform="translate(-3103.39 -731.378)"></path>
                                    <path class="c" d="M3490.719,643.584h2.992v2.708h-2.992Zm0,4.208h2.992v11.06h-2.992Z" transform="translate(-3395.792 -643.584)"></path>
                                    <path class="c" d="M3606.737,743.491l3-.448a2.138,2.138,0,0,0,.776,1.3,2.668,2.668,0,0,0,1.64.443,3.01,3.01,0,0,0,1.746-.416.92.92,0,0,0,.393-.781.754.754,0,0,0-.213-.553,2.414,2.414,0,0,0-1-.385,16.42,16.42,0,0,1-4.588-1.427,2.834,2.834,0,0,1-1.342-2.49,3.042,3.042,0,0,1,1.162-2.416,5.5,5.5,0,0,1,3.6-.979,6.391,6.391,0,0,1,3.449.74,3.782,3.782,0,0,1,1.554,2.187l-2.822.511a1.7,1.7,0,0,0-.686-.989,2.555,2.555,0,0,0-1.443-.344,3.316,3.316,0,0,0-1.692.322.69.69,0,0,0-.341.594.642.642,0,0,0,.3.531,11.422,11.422,0,0,0,2.795.823,8.435,8.435,0,0,1,3.338,1.3,2.68,2.68,0,0,1,.936,2.177,3.314,3.314,0,0,1-1.3,2.614,5.84,5.84,0,0,1-3.843,1.093,6.409,6.409,0,0,1-3.657-.917,4.219,4.219,0,0,1-1.762-2.489" transform="translate(-3506.806 -731.378)"></path>
                                    <path class="c" d="M3890.1,654.486v2.333h-2.044v4.458a10.916,10.916,0,0,0,.058,1.579.651.651,0,0,0,.265.369.864.864,0,0,0,.506.146,3.944,3.944,0,0,0,1.2-.281l.256,2.271a6.075,6.075,0,0,1-2.363.437,3.814,3.814,0,0,1-1.459-.265,2.118,2.118,0,0,1-.952-.687,2.668,2.668,0,0,1-.421-1.14,13.861,13.861,0,0,1-.1-2.062v-4.823h-1.373v-2.333h1.373v-2.2l3-1.708v3.906Z" transform="translate(-3771.811 -650.278)"></path>
                                  </g>
                                  <g transform="translate(1.578 3)">
                                    <path class="d" d="M68.563,71.758a19.984,19.984,0,1,1-1.8,28.2,19.99,19.99,0,0,1,1.8-28.2Z" transform="translate(-55.324 -61.742)"></path>
                                    <g class="e" transform="translate(6.422 5)">
                                      <g transform="translate(2.336 8.023)">
                                        <path class="f" d="M89.854,129.735c-6.291-20.408-17.595-19.232-21.585,6.035,7.771-18.556,14.584-18.753,21.585-6.035Z" transform="translate(-68.269 -106.077)"></path>
                                        <path class="f" d="M146.056,131.982c-5.364-8.544-12.787-13.247-16.214.2,1.739-19.027,12.122-15.293,16.214-.2Z" transform="translate(-107.797 -108.478)"></path>
                                        <path class="f" d="M93.4,89.152c1.381.025,2.286,2.086,2.02,4.6s-1.6,4.533-2.984,4.508-2.286-2.086-2.02-4.6,1.6-4.533,2.985-4.508Z" transform="translate(-82.454 -89.151)"></path>
                                        <path class="f" d="M134.657,101.375c1.015-1.008,2.586-.561,3.5,1s.841,3.642-.174,4.65-2.585.561-3.5-1-.841-3.642.174-4.65Z" transform="translate(-110.364 -96.652)"></path>
                                      </g>
                                    </g>
                                  </g>
                                </svg>