<svg width="100" height="100" viewBox="0 0 100 100" fill="none" xmlns="http://www.w3.org/2000/svg">
<g clip-path="url(#clip0_611_4861)">
<path d="M93.6396 83.3819H85.7491V77.789H87.8048C91.2513 77.789 94.0628 74.9775 94.0628 71.531V20.258C94.093 16.8116 91.2815 14 87.8351 14H12.1649C8.71851 14 5.90695 16.8116 5.90695 20.258V71.531C5.90695 74.9775 8.71851 77.789 12.1649 77.789H14.2509V83.3819H6.36043C5.60464 83.3819 5 83.9865 5 84.7423C5 85.4981 5.60464 86.1028 6.36043 86.1028H93.6396C94.3954 86.1028 95 85.4981 95 84.7423C95 83.9865 94.3954 83.3819 93.6396 83.3819ZM25.9204 83.3819H16.9718V67.0567H25.9204V83.3819ZM33.2969 83.3819H28.6412V77.789H33.2667V83.3819H33.2969ZM44.9664 83.3819H36.0178V48.9177H44.9664V83.3819ZM52.3127 83.3819H47.6873V77.789H52.3127V83.3819ZM64.0124 83.3819H55.0638V63.0057H64.0124V83.3819ZM71.3587 83.3819H66.7333V77.789H71.3587V83.3819ZM83.0282 83.3819H74.0796V45.6224H83.0282V83.3819ZM84.3886 42.8713H72.7192C71.9634 42.8713 71.3587 43.476 71.3587 44.2318V75.0682H66.7333V61.6453C66.7333 60.8895 66.1287 60.2848 65.3729 60.2848H53.6732C52.9174 60.2848 52.3127 60.8895 52.3127 61.6453V75.0682H47.6873V47.5573C47.6873 46.8015 47.0826 46.1968 46.3268 46.1968H34.6574C33.9016 46.1968 33.2969 46.8015 33.2969 47.5573V75.0682H28.6412V65.6963C28.6412 64.9405 28.0366 64.3359 27.2808 64.3359H15.6114C14.8556 64.3359 14.2509 64.9405 14.2509 65.6963V75.0682H12.1649C10.2301 75.0682 8.62781 73.4961 8.62781 71.531V20.258C8.65805 18.3231 10.2301 16.7209 12.1649 16.7209H87.8351C89.7699 16.7209 91.3722 18.2929 91.3722 20.258V71.531C91.3722 73.4659 89.8001 75.0682 87.8351 75.0682H85.7793V44.2318C85.7793 43.476 85.1444 42.8713 84.3886 42.8713Z" fill="#5585FF"/>
<path d="M78.5229 25.6084C74.1091 25.6084 71.3882 30.4455 73.6556 34.1942L62.4698 45.2288C60.6559 44.1102 58.3583 44.1102 56.5444 45.2288L45.3284 34.1942C47.5655 30.4455 44.8749 25.6084 40.4611 25.6084C36.0472 25.6084 33.3566 30.4152 35.5938 34.1942L24.408 45.2288C20.6593 42.9312 15.7617 45.6218 15.7617 50.0659C15.7617 53.21 18.3012 55.7495 21.4453 55.7495C25.8591 55.7495 28.5498 50.9124 26.3126 47.1636L37.4984 36.1291C39.3123 37.2476 41.6099 37.2476 43.4238 36.1291L54.6398 47.1636C52.4026 50.9124 55.0933 55.7495 59.5373 55.7495C63.9512 55.7495 66.672 50.9124 64.4046 47.1636L75.5904 36.1291C79.3391 38.4267 84.2367 35.736 84.2367 31.292C84.2065 28.1781 81.667 25.6084 78.5229 25.6084ZM21.4151 53.0286C19.7825 53.0286 18.4523 51.6984 18.4523 50.0659C18.4523 48.4334 19.7825 47.1032 21.4151 47.1032C23.0476 47.1032 24.3778 48.4334 24.3778 50.0659C24.3778 51.6984 23.0476 53.0286 21.4151 53.0286ZM40.4611 34.2547C38.8286 34.2547 37.4984 32.9245 37.4984 31.292C37.4984 29.6595 38.8286 28.3293 40.4611 28.3293C42.0936 28.3293 43.4238 29.6595 43.4238 31.292C43.3936 32.9245 42.0634 34.2547 40.4611 34.2547ZM59.5071 53.0286C57.8746 53.0286 56.5444 51.6984 56.5444 50.0659C56.5444 48.4334 57.8746 47.1032 59.5071 47.1032C61.1396 47.1032 62.4698 48.4334 62.4698 50.0659C62.4698 51.6984 61.1396 53.0286 59.5071 53.0286ZM78.5229 34.2547C76.8904 34.2547 75.5602 32.9245 75.5602 31.292C75.5602 29.6595 76.8904 28.3293 78.5229 28.3293C80.1554 28.3293 81.4856 29.6595 81.4856 31.292C81.4856 32.9245 80.1554 34.2547 78.5229 34.2547Z" fill="#5585FF"/>
</g>
<defs>
<clipPath id="clip0_611_4861">
<rect width="90" height="72.1028" fill="white" transform="translate(5 14)"/>
</clipPath>
</defs>
</svg>
