<svg width="100" height="100" viewBox="0 0 100 100" fill="none" xmlns="http://www.w3.org/2000/svg">
<g clip-path="url(#clip0_611_4808)">
<path d="M88.9723 46.6535C88.9723 46.5152 88.9447 46.3769 88.8894 46.211C88.8617 46.1556 88.8617 46.1003 88.834 46.045C88.7511 45.879 88.6681 45.7131 88.5298 45.5748L79.2638 36.3088V27.2365C79.2638 27.2088 79.2362 27.1812 79.2362 27.1258C79.2362 26.9875 79.2085 26.8493 79.1532 26.711C79.1255 26.6556 79.1255 26.6003 79.0979 26.545C79.0149 26.379 78.9319 26.2131 78.766 26.0748L64.134 11.4705C63.9957 11.3322 63.8298 11.2216 63.6638 11.1386C63.6085 11.111 63.5808 11.111 63.5255 11.0833C63.3872 11.028 63.2489 11.0003 63.1106 11.0003C63.083 11.0003 63.0553 10.9727 63.0277 10.9727H22.3681C21.483 10.9727 20.7362 11.6918 20.7362 12.6046V36.3088L11.4702 45.6024C11.3319 45.7407 11.2489 45.9067 11.166 46.0727C11.1383 46.128 11.1383 46.1833 11.1106 46.2386C11.0553 46.3769 11.0277 46.5152 11.0277 46.6812C11.0277 46.7088 11 46.7365 11 46.7918V77.6599C11 78.545 11.7191 79.2918 12.6319 79.2918H20.7638V87.4237C20.7638 88.3088 21.483 89.0556 22.3957 89.0556H77.6319C78.517 89.0556 79.2638 88.3365 79.2638 87.4237V79.2918H87.3957C88.2809 79.2918 89.0277 78.5727 89.0277 77.6599V46.7365C89 46.7088 88.9723 46.6812 88.9723 46.6535ZM83.4404 45.1322H79.2362V40.928L83.4404 45.1322ZM73.7043 25.6322H64.6319V16.5599L73.7043 25.6322ZM24 14.2365H61.3681V27.2365C61.3681 28.1216 62.0872 28.8684 63 28.8684H76V37.0003V45.1322H24V37.0003V14.2365ZM20.7362 40.928V45.1322H16.5596L20.7362 40.928ZM76 85.7365H24V79.2365H76V85.7365ZM85.7362 76.0003H14.2362V48.3684H22.3681H77.6043H85.7362V76.0003Z" fill="#33B89F"/>
<path d="M44.2743 53.1816L39.4062 72.737H42.7254L43.7211 68.588H48.8658L49.8339 72.737H53.2914L48.5063 53.1816H44.2743ZM44.136 66.0157L46.2658 56.3072H46.3765L48.4509 66.0157H44.136Z" fill="#33B89F"/>
<path d="M58.659 53.1816H55.3398V72.737H58.659V53.1816Z" fill="#33B89F"/>
</g>
<defs>
<clipPath id="clip0_611_4808">
<rect width="78" height="78" fill="white" transform="translate(11 11)"/>
</clipPath>
</defs>
</svg>
